<?xml version="1.0" standalone="no"?>
<!DOCTYPE svg PUBLIC "-//W3C//DTD SVG 20010904//EN"
 "http://www.w3.org/TR/2001/REC-SVG-20010904/DTD/svg10.dtd">
<svg version="1.0" xmlns="http://www.w3.org/2000/svg"
 width="368.000000pt" height="368.000000pt" viewBox="0 0 368.000000 368.000000"
 preserveAspectRatio="xMidYMid meet">
<metadata>
Created by potrace 1.11, written by Peter Selinger 2001-2013
</metadata>
<g transform="translate(0.000000,368.000000) scale(0.100000,-0.100000)"
fill="#000000" stroke="none">
<path d="M2993 3666 c-5 -7 -23 -21 -41 -31 -17 -11 -35 -28 -38 -39 -7 -21
-39 -71 -134 -208 -33 -49 -57 -88 -54 -88 4 0 1 -7 -6 -15 -11 -13 -10 -14 2
-10 17 7 33 -21 17 -30 -5 -4 -7 -11 -4 -16 4 -5 2 -9 -4 -9 -5 0 -14 8 -20
17 -8 16 -12 15 -36 -11 -22 -24 -145 -265 -145 -284 0 -4 -11 -28 -25 -55
-14 -26 -23 -47 -20 -47 3 0 -1 -10 -9 -22 -11 -19 -38 -88 -41 -108 0 -3 -6
-14 -12 -26 -7 -11 -14 -32 -17 -45 -2 -13 -12 -44 -21 -69 -9 -25 -19 -56
-20 -70 -5 -31 -13 -65 -16 -65 -1 0 -3 -9 -5 -20 -4 -29 -12 -60 -15 -60 -1
0 -2 -11 -3 -25 -1 -14 -5 -30 -9 -37 -4 -6 -3 -14 3 -18 6 -4 7 -13 2 -23 -9
-19 -9 -32 -1 -47 4 -9 5 -36 0 -97 -1 -18 -52 -38 -91 -34 -27 2 -66 26 -109
66 -26 25 -29 27 -56 29 -20 1 -19 40 0 47 20 8 65 84 71 121 2 15 6 33 9 40
9 26 -35 17 -115 -25 -47 -24 -92 -50 -101 -58 -8 -8 -19 -14 -23 -14 -4 0
-38 -31 -75 -69 -69 -69 -102 -83 -126 -54 -8 9 -23 5 -65 -15 -30 -15 -58
-31 -61 -36 -4 -4 -9 -2 -12 5 -4 10 -6 9 -6 -3 -1 -10 -7 -18 -15 -18 -8 0
-33 -9 -57 -19 -24 -11 -47 -17 -51 -15 -4 3 -17 7 -28 9 -17 3 -19 0 -14 -22
5 -17 3 -24 -4 -19 -6 3 -17 -2 -24 -12 -7 -10 -23 -21 -35 -24 -34 -9 -29 16
7 42 17 12 27 26 24 32 -4 5 -8 28 -10 51 -6 53 -11 85 -18 95 -3 5 -8 22 -11
38 -9 44 -17 66 -41 122 -8 18 -14 41 -14 51 0 10 -6 34 -14 52 -7 19 -11 40
-9 47 3 6 0 12 -6 12 -6 0 -11 9 -11 20 0 17 -13 57 -45 135 -4 11 -10 29 -12
39 -2 11 -11 28 -20 38 -9 10 -13 18 -9 18 9 0 -44 103 -58 112 -6 5 -7 8 -1
8 6 0 6 3 -1 8 -15 10 -94 123 -94 135 0 5 -11 18 -25 29 -14 11 -51 59 -82
106 -32 48 -63 93 -70 100 -7 7 -13 16 -13 20 0 4 -18 27 -39 52 -22 24 -38
48 -35 51 2 4 -4 10 -13 14 -10 3 -35 33 -56 66 -27 41 -45 59 -60 60 -47 3
-66 -6 -71 -32 -1 -8 -7 -24 -14 -35 -6 -12 -9 -24 -6 -27 3 -3 -2 -19 -11
-36 -8 -17 -13 -31 -11 -31 3 0 0 -15 -5 -32 -14 -47 -19 -68 -24 -113 -3 -22
-7 -51 -10 -65 -15 -74 -18 -102 -18 -170 -1 -41 2 -100 6 -130 13 -93 20
-154 21 -175 1 -11 5 -26 9 -32 5 -7 10 -21 12 -32 2 -10 13 -40 26 -67 12
-27 34 -77 50 -111 15 -34 42 -77 60 -95 17 -18 38 -43 46 -55 8 -12 49 -45
91 -74 42 -29 106 -75 142 -102 35 -27 76 -54 90 -61 14 -6 37 -22 52 -36 41
-39 53 -47 79 -55 27 -9 78 -63 79 -84 0 -8 -15 -29 -32 -47 -18 -17 -43 -45
-55 -61 -12 -15 -30 -37 -41 -49 -30 -32 -46 -66 -48 -104 -2 -40 -13 -100
-20 -111 -2 -5 -7 -38 -9 -74 -2 -37 -8 -72 -13 -78 -8 -11 -7 -103 2 -193 5
-53 -5 -68 -46 -69 -45 -2 -96 -30 -111 -62 -10 -22 -9 -28 7 -37 37 -23 86
-78 78 -90 -12 -17 -14 -63 -3 -70 7 -5 7 -15 0 -34 -16 -40 -20 -62 -23 -115
-3 -40 3 -58 30 -103 18 -30 35 -62 38 -72 3 -9 18 -30 34 -47 26 -29 34 -58
21 -80 -12 -20 -2 -150 13 -180 33 -62 76 -83 116 -57 13 8 41 17 62 18 22 2
47 7 57 13 10 5 32 11 50 14 17 3 37 8 42 12 29 18 2 -41 -41 -89 -15 -16 -33
-41 -40 -55 -7 -15 -17 -29 -22 -33 -5 -3 -11 -14 -12 -22 -2 -14 75 -16 805
-16 444 0 811 3 814 7 4 3 3 11 -2 17 -18 24 -29 73 -19 90 7 12 4 21 -11 34
-12 9 -24 31 -27 48 -5 29 -2 33 40 58 25 15 47 35 47 44 2 26 1 64 -4 95 -4
23 4 38 37 73 l41 45 -2 107 c-3 139 -3 145 -22 158 -14 11 -12 18 13 65 16
30 31 56 33 58 2 3 24 5 49 6 48 1 81 26 66 49 -4 6 -7 13 -8 16 0 3 -5 14 -9
24 -6 13 -5 21 3 24 6 2 29 19 51 38 32 28 39 40 35 62 -7 34 -7 34 -46 36
-18 1 -38 4 -44 8 -12 8 -13 62 -2 74 4 3 3 15 -3 26 -6 11 -13 32 -15 46 -3
15 -9 31 -14 37 -5 6 -7 20 -6 30 2 11 -3 40 -11 65 -8 25 -15 50 -17 55 -1 6
-7 20 -14 32 -7 12 -12 29 -12 37 0 9 -4 16 -8 16 -5 0 -9 6 -10 13 -2 25 -33
100 -57 135 -14 20 -25 42 -25 49 0 7 -5 13 -10 13 -6 0 -16 12 -23 27 -28 61
-175 182 -266 219 -34 13 -39 19 -31 34 5 9 7 20 4 22 -3 3 14 13 37 22 23 10
66 33 94 52 29 19 59 34 69 34 9 0 16 4 16 9 0 5 22 24 50 42 27 19 50 39 50
45 0 6 9 19 21 30 11 10 37 44 56 76 20 32 40 58 46 58 6 0 8 3 5 6 -4 3 12
39 34 80 22 41 37 74 34 74 -3 0 -1 12 5 28 10 25 14 38 24 87 3 11 8 31 11
45 11 49 16 107 16 215 0 110 -7 300 -12 300 -1 0 -3 16 -5 35 -1 19 -6 49
-10 65 -3 17 -8 42 -10 56 -2 14 -9 39 -15 55 -16 40 -22 63 -25 104 -1 19 -3
40 -4 46 -2 18 -29 25 -38 10z"/>
<path d="M3511 2599 c-13 -5 -35 -21 -48 -35 -18 -20 -30 -24 -56 -20 -37 6
-46 1 -69 -35 -17 -27 -16 -55 2 -103 5 -13 7 -36 4 -50 -4 -26 22 -50 58 -51
9 0 19 -3 23 -7 4 -4 18 0 30 8 13 8 29 14 37 13 56 -12 101 49 84 111 -5 19
-14 38 -19 41 -5 4 -6 17 -1 30 24 72 4 116 -45 98z"/>
<path d="M499 1788 c-6 -11 -7 -27 -3 -36 4 -9 8 -19 8 -22 1 -3 5 -11 9 -17
5 -8 4 -13 -2 -13 -6 0 -19 -18 -30 -40 -14 -30 -16 -42 -7 -53 17 -22 43 -27
56 -12 9 11 17 12 30 5 11 -6 28 -9 40 -7 28 4 105 87 104 112 -1 11 -2 29 -3
41 -1 26 -39 44 -68 33 -17 -6 -23 -5 -23 6 0 8 -6 15 -12 16 -7 0 -30 2 -51
4 -29 2 -40 -1 -48 -17z"/>
<path d="M172 898 c-5 -7 -17 -28 -26 -45 -10 -20 -30 -39 -51 -47 -28 -12
-33 -19 -31 -42 2 -15 14 -36 27 -46 13 -10 32 -25 42 -35 9 -9 26 -18 37 -20
21 -3 50 21 50 42 0 7 4 15 10 17 22 7 13 98 -10 98 -4 0 -6 15 -5 33 3 40 -3
57 -20 57 -7 0 -17 -6 -23 -12z"/>
<path d="M3552 736 c-13 -7 -31 -23 -40 -37 -9 -14 -26 -25 -37 -24 -12 0 -23
-10 -29 -28 -9 -24 -6 -31 24 -62 24 -25 41 -34 55 -31 11 3 26 1 33 -3 18
-11 61 9 63 29 5 43 3 58 -10 85 -8 17 -15 41 -15 54 -1 29 -14 34 -44 17z"/>
</g>
</svg>
